# xmcd
#
# Track frame offsets:
#       150
#       12212
#       26062
#       49700
#       63637
#       78350
#       92300
#       104662
#       135900
#       155700
#       188637
#       200275
#       216150
#       224462
#
# Disc length: 3339 seconds
#
# Revision: 1
# Processed by: cddbd v1.4PL0 Copyright (c) Steve Scherf et al.
# Submitted via: MusiCat 1.1
#
DISCID=bd0d090e
DTITLE=Various Artist - Rock Festival
DYEAR=1900
DGENRE=
TTITLE0=Summer In The City - Lovin' Spoonful
TTITLE1=Pictures of Matchstick Men - Status quo
TTITLE2=I Need You Baby - BB King
TTITLE3=Jeff's Blues Jeff Beck
TTITLE4=A Lot Of Changes Is Coming Hall and Oates
TTITLE5=Blockbuster - Sweet
TTITLE6=So Fine - Tina Turner
TTITLE7=\I'm A Man - Chicago
TTITLE8=Nuclear Blues  - Blood sweat and Tears
TTITLE9=Voodoo Chile Jimi Hendrix
TTITLE10=400 Years - Bob marley
TTITLE11=Fox on The Run - Brian Connelly (Sweet)
TTITLE12=My baby - Ike and Tina Turner
TTITLE13=Dust My Broom - canned Heat
EXTD=0\nEclipse\nEML 75\n
EXTT0=
EXTT1=
EXTT2=
EXTT3=
EXTT4=
EXTT5=
EXTT6=
EXTT7=
EXTT8=
EXTT9=
EXTT10=
EXTT11=
EXTT12=
EXTT13=
PLAYORDER=
